<svg width="1128" height="335" viewBox="0 0 1128 335" fill="none" xmlns="http://www.w3.org/2000/svg">
<g clip-path="url(#clip0_9_1449)">
<path d="M379.36 53.4697H403.74V66.4097H404.21C409.83 56.5497 416.4 52.1797 426.09 52.1797C428.43 52.1797 430 52.3397 431.09 52.8297V75.4697H430.46C414.83 73.2097 404.83 81.1297 404.83 99.0797V136.28H379.36V53.4697Z" fill="white"/>
<path d="M442.35 20.6499H467.82V41.9899H442.35V20.6499ZM442.35 53.4699H467.82V136.27H442.35V53.4699Z" fill="white"/>
<path d="M483.14 53.47H507.68V64.79H508.15C514.09 55.89 521.75 51.04 532.84 51.04C550.34 51.04 560.66 63.98 560.66 82.41V136.26H535.18V87.76C535.18 79.03 530.96 73.04 522.68 73.04C514.24 73.04 508.61 80.32 508.61 90.51V136.27H483.14V53.47Z" fill="white"/>
<path d="M573.47 138.21H598.16C599.57 142.58 603.79 146.3 612.23 146.3C623.01 146.3 627.55 140.48 627.55 130.45V122.2H626.92C622.23 127.7 616.14 131.74 606.45 131.74C588.48 131.74 571.75 117.83 571.75 92.44C571.75 68.18 585.5 51.04 605.35 51.04C615.98 51.04 623.17 55.41 627.86 62.36H628.17V53.46H652.55V128.17C652.55 140.62 648.33 149.68 641.92 155.66C634.89 162.13 624.42 164.88 612.54 164.88C590.51 164.89 575.97 155.52 573.47 138.21ZM628.65 91.48C628.65 80.32 623.03 70.94 612.4 70.94C602.87 70.94 596.61 79.03 596.61 91.64C596.61 104.09 602.86 112.18 612.4 112.18C623.49 112.17 628.65 103.12 628.65 91.48Z" fill="white"/>
<path d="M379.36 207.7H403.74V217.73H404.21C409.68 210.29 417.49 205.28 428.43 205.28C449.68 205.28 462.66 224.2 462.66 249.1C462.66 275.95 448.75 293.09 427.81 293.09C417.49 293.09 410.15 288.89 405.15 281.93H404.84V317.83H379.37V207.7H379.36ZM436.88 250.07C436.88 235.84 431.72 226.46 420.78 226.46C409.68 226.46 404.06 236.65 404.06 250.07C404.06 263.49 410.31 272.71 421.25 272.71C430.94 272.71 436.88 264.14 436.88 250.07Z" fill="white"/>
<path d="M473.76 262.04V207.7H499.08V256.54C499.08 265.6 502.99 270.61 511.11 270.61C519.86 270.61 525.18 263.82 525.18 253.95V207.7H550.66V290.5H526.28V280.31H525.81C520.03 288.4 512.99 292.92 501.9 292.92C483.45 292.93 473.76 280.47 473.76 262.04Z" fill="white"/>
<path d="M590.67 279.99H590.36V290.5H565.98V174.88H591.45V217.09H591.92C596.92 209.98 603.8 205.29 614.74 205.29C635.53 205.29 648.97 224.21 648.97 249.11C648.97 276.6 635.53 293.1 614.9 293.1C604.26 293.09 595.67 288.56 590.67 279.99ZM623.18 248.94C623.18 234.71 617.71 225.33 607.39 225.33C596.14 225.33 590.67 235.52 590.67 249.1C590.67 262.85 597.23 272.22 607.71 272.22C617.71 272.23 623.18 263.33 623.18 248.94Z" fill="white"/>
<path d="M660.85 174.88H686.64V290.51H660.85V174.88Z" fill="white"/>
<path d="M702.11 174.88H727.58V196.22H702.11V174.88ZM702.11 207.7H727.58V290.5H702.11V207.7Z" fill="white"/>
<path d="M738.05 263.66H762.12C763.06 271.91 768.37 275.95 776.81 275.95C784.47 275.95 789.31 273.04 789.31 267.7C789.31 260.26 779.62 259.45 768.99 257.51C755.08 255.08 740.23 251.2 740.23 231.8C740.23 214.33 755.86 205.28 774.77 205.28C797.43 205.28 809.62 215.47 810.87 231.8H787.43C786.49 224.36 781.65 222.1 774.61 222.1C768.36 222.1 763.51 224.53 763.51 229.7C763.51 235.52 772.58 236.33 782.74 238.27C796.81 240.7 813.37 244.42 813.37 265.6C813.37 283.71 797.9 293.09 776.95 293.09C753.52 293.09 738.83 281.93 738.05 263.66Z" fill="white"/>
<path d="M824.79 174.88H850.26V217.9H850.73C856.51 209.98 863.39 205.29 874.49 205.29C891.99 205.29 902.31 218.23 902.31 236.66V290.51H876.83V242C876.83 233.27 872.61 227.28 864.33 227.28C855.89 227.28 850.26 234.56 850.26 244.75V290.51H824.79V174.88Z" fill="white"/>
<path d="M917.01 174.88H942.48V196.22H917.01V174.88ZM917.01 207.7H942.48V290.5H917.01V207.7Z" fill="white"/>
<path d="M957.8 207.7H982.34V219.02H982.81C988.75 210.12 996.41 205.27 1007.5 205.27C1025 205.27 1035.32 218.21 1035.32 236.64V290.49H1009.84V241.98C1009.84 233.25 1005.62 227.26 997.34 227.26C988.9 227.26 983.27 234.54 983.27 244.73V290.49H957.8V207.7Z" fill="white"/>
<path d="M1048.13 292.44H1072.82C1074.23 296.81 1078.45 300.53 1086.89 300.53C1097.67 300.53 1102.21 294.71 1102.21 284.68V276.43H1101.58C1096.89 281.93 1090.8 285.97 1081.11 285.97C1063.14 285.97 1046.41 272.06 1046.41 246.67C1046.41 222.41 1060.16 205.27 1080.01 205.27C1090.64 205.27 1097.83 209.64 1102.52 216.59H1102.83V207.69H1127.21V282.4C1127.21 294.85 1122.99 303.91 1116.58 309.89C1109.55 316.36 1099.08 319.11 1087.2 319.11C1065.17 319.12 1050.63 309.75 1048.13 292.44ZM1103.3 245.71C1103.3 234.55 1097.67 225.17 1087.05 225.17C1077.52 225.17 1071.26 233.26 1071.26 245.87C1071.26 258.32 1077.51 266.41 1087.05 266.41C1098.15 266.4 1103.3 257.35 1103.3 245.71Z" fill="white"/>
<path d="M166.21 264.56C114.79 256.3 75.31 210.19 75.31 154.71C75.31 140.63 77.88 127.17 82.51 114.76C69.55 131.41 61.13 151.99 59.21 174.48C62.08 207.99 79.37 237.25 104.61 255.6C118.32 262.18 133.58 265.88 149.66 265.88C155.29 265.89 160.81 265.43 166.21 264.56Z" fill="#FFD321"/>
<path d="M311.87 164.6C311.87 167.92 311.73 171.21 311.52 174.49C311.73 177.76 311.87 181.05 311.87 184.38C311.87 205.64 307.57 225.87 299.86 244.23C317.79 219.18 328.42 188.22 328.42 154.72C328.42 71.6198 263.08 4.00977 182.76 4.00977C177.16 4.00977 171.65 4.36977 166.21 5.00977C189.77 7.77977 211.64 16.3698 230.44 29.3798C278.63 53.9798 311.87 105.34 311.87 164.6Z" fill="#FFD321"/>
<path d="M20.9 174.48C20.69 171.21 20.55 167.92 20.55 164.59C20.55 105.33 53.79 53.97 101.98 29.37C120.78 16.36 142.65 7.77 166.21 5C160.77 4.36 155.26 4 149.66 4C69.35 4 4 71.61 4 154.71C4 188.2 14.63 219.17 32.56 244.22C24.85 225.86 20.55 205.63 20.55 184.37C20.55 181.04 20.69 177.76 20.9 174.48Z" fill="#25B2E8"/>
<path d="M257.11 154.71C257.11 210.19 217.63 256.3 166.21 264.56C171.61 265.43 177.13 265.88 182.76 265.88C198.84 265.88 214.1 262.18 227.82 255.6C253.06 237.26 270.35 207.99 273.21 174.48C271.28 151.99 262.87 131.41 249.91 114.76C254.54 127.17 257.11 140.63 257.11 154.71Z" fill="#25B2E8"/>
<path d="M166.21 264.56C160.81 265.43 155.29 265.88 149.66 265.88C133.58 265.88 118.32 262.18 104.61 255.6C122.07 268.29 143.31 275.77 166.21 275.77C189.12 275.77 210.36 268.29 227.81 255.6C214.1 262.18 198.84 265.88 182.75 265.88C177.13 265.89 171.6 265.43 166.21 264.56Z" fill="#0DA03D"/>
<path d="M166.21 13.88C189.25 13.88 211.05 19.47 230.44 29.37C211.64 16.36 189.77 7.77 166.21 5C142.65 7.77 120.78 16.36 101.98 29.37C121.36 19.47 143.16 13.88 166.21 13.88Z" fill="#0DA03D"/>
<path d="M246.99 289.93C223.86 305.95 196.07 315.31 166.21 315.31C136.35 315.31 108.56 305.95 85.4301 289.93C64.4801 279.23 46.3501 263.48 32.5601 244.22C54.9901 297.63 106.44 335.08 166.21 335.08C225.98 335.08 277.43 297.62 299.86 244.22C286.06 263.49 267.94 279.24 246.99 289.93Z" fill="#DA4592"/>
<path d="M121.15 63.6999C103.83 76.2899 90.2498 94.0299 82.5098 114.76C102.22 89.4399 132.41 73.1899 166.21 73.1899C200.01 73.1899 230.19 89.4399 249.9 114.76C242.16 94.0299 228.58 76.2899 211.26 63.6999C197.55 57.1199 182.29 53.4199 166.21 53.4199C150.12 53.4199 134.87 57.1199 121.15 63.6999Z" fill="#DA4592"/>
<path d="M311.52 174.48C308.49 222.58 283.58 264.6 246.99 289.93C267.94 279.23 286.07 263.48 299.86 244.21C307.57 225.85 311.87 205.62 311.87 184.36C311.87 181.04 311.72 177.76 311.52 174.48Z" fill="#E62636"/>
<path d="M121.15 63.7002C84.3498 81.3602 58.7598 119.93 58.7598 164.59C58.7598 167.92 58.9298 171.22 59.2098 174.48C61.1398 151.99 69.5498 131.41 82.5098 114.76C90.2598 94.0302 103.83 76.3002 121.15 63.7002Z" fill="#E62636"/>
<path d="M85.4298 289.93C48.8398 264.6 23.9298 222.58 20.8998 174.48C20.6898 177.75 20.5498 181.04 20.5498 184.37C20.5498 205.63 24.8498 225.86 32.5598 244.22C46.3498 263.49 64.4798 279.24 85.4298 289.93Z" fill="#2854A1"/>
<path d="M249.9 114.76C262.86 131.41 271.28 151.99 273.2 174.48C273.48 171.22 273.65 167.93 273.65 164.59C273.65 119.93 248.06 81.3602 211.26 63.7002C228.59 76.3002 242.16 94.0302 249.9 114.76Z" fill="#2854A1"/>
<path d="M20.5498 164.6C20.5498 81.5001 85.8898 13.8901 166.21 13.8901C246.53 13.8901 311.87 81.5001 311.87 164.6C311.87 247.7 246.53 315.31 166.21 315.31C85.8898 315.31 20.5498 247.7 20.5498 164.6ZM58.7598 164.6C58.7598 225.9 106.96 275.77 166.21 275.77C225.46 275.77 273.66 225.9 273.66 164.6C273.66 103.3 225.46 53.4201 166.21 53.4201C106.96 53.4201 58.7598 103.3 58.7598 164.6Z" fill="#020203"/>
</g>
<defs>
<clipPath id="clip0_9_1449">
<rect width="1128" height="335" fill="white"/>
</clipPath>
</defs>
</svg>
